<svg xmlns="http://www.w3.org/2000/svg" width="32" height="32" fill="#032c36"><path d="M16 0A16 16 0 0 0 0 16a16 16 0 0 0 16 16 16 16 0 0 0 16-16A16 16 0 0 0 16 0m-2.011 5.355a7.5 7.5 0 0 1 4.917 1.825 9 9 0 0 1 1-.58q1.267-.626 2.807-.627.544 0 1.196.095c.652.095.837.187 1.207.367q.556.273.923.71.367.439.367 1.15a2.6 2.6 0 0 1-.437 1.48q-.439.65-1.694.65-.922 0-1.219-.378a2.6 2.6 0 0 1-.437-.818 6.5 6.5 0 0 0-.333-.829q-.19-.39-.924-.39-.69 0-1.382.305a7.5 7.5 0 0 1 1.554 4.584c0 1.155-.262 2.25-.725 3.229l-1.164 2.779h1.802l-3.18 4.578h1.873l-3.181 5.104V25.05h-1.875l1.733-4.536-3.228-.07.007-.01a7.545 7.545 0 0 1 .393-15.079m1.467 3.238a3.144 3.144 0 1 0 0 6.287 3.144 3.144 0 0 0 0-6.287"/></svg>