<svg xmlns="http://www.w3.org/2000/svg" width="32" height="32" fill="#032c36"><path d="M16 0A16 16 0 0 0 0 16a16 16 0 0 0 16 16 16 16 0 0 0 16-16A16 16 0 0 0 16 0Zm-2.011 5.355a7.512 7.512 0 0 1 4.917 1.825 9.05 9.05 0 0 1 1-.58c.845-.417 1.78-.627 2.807-.627.362 0 .762.032 1.196.095s.837.187 1.207.367c.371.182.678.418.923.71.245.293.367.675.367 1.15a2.587 2.587 0 0 1-.437 1.48c-.293.433-.857.65-1.694.65-.615 0-1.021-.126-1.219-.378a2.617 2.617 0 0 1-.437-.818 6.478 6.478 0 0 0-.333-.829c-.126-.26-.435-.39-.924-.39-.46 0-.92.102-1.382.305a7.512 7.512 0 0 1 1.554 4.584c0 1.155-.262 2.25-.725 3.229l-1.164 2.779h1.802l-3.18 4.578h1.873l-3.181 5.104V25.05h-1.875l1.733-4.536-3.228-.07.007-.01a7.545 7.545 0 0 1 .393-15.079zm1.467 3.238a3.144 3.144 0 1 0 0 6.287 3.144 3.144 0 0 0 0-6.287z"/></svg>