<svg xmlns="http://www.w3.org/2000/svg" height="32" width="32" fill="#032c36">
	<path d="M56.5 115.498a12.8 12.8 0 0 1-12.8-12.8 12.8 12.8 0 0 1 12.8-12.8 12.8 12.8 0 0 1 12.8 12.8 12.8 12.8 0 0 1-12.8 12.8Zm-1.609-4.284a6.01 6.01 0 0 0 3.934-1.46c.251.168.517.323.8.464.676.334 1.424.502 2.245.502.29 0 .61-.026.957-.076s.67-.15.966-.294c.297-.145.542-.334.738-.568.196-.234.294-.54.294-.919a2.07 2.07 0 0 0-.35-1.184c-.234-.347-.685-.52-1.355-.52-.492 0-.817.1-.975.302-.158.202-.275.42-.35.654a5.182 5.182 0 0 1-.266.663c-.101.208-.348.312-.739.312-.368 0-.737-.081-1.106-.244a6.01 6.01 0 0 0 1.243-3.667c0-.924-.209-1.8-.58-2.583l-.931-2.223h1.442l-2.545-3.663h1.499l-2.545-4.083v2.831h-1.5l1.387 3.629-2.583.056.006.008a6.036 6.036 0 0 0 .314 12.063zm1.174-2.59a2.515 2.515 0 1 1 0-5.03 2.515 2.515 0 0 1 0 5.03z" transform="matrix(1.25 0 0 -1.25 -54.625 144.373)"/>
</svg>