<svg xmlns="http://www.w3.org/2000/svg" width="32" height="32" fill="#032c36" viewBox="5 -10 32 43.199"><path d="M21.253-9.716c-11.927 0-21.598 9.67-21.598 21.6 0 9.544 6.189 17.639 14.772 20.496 1.08.198 1.474-.469 1.474-1.042 0-.512-.018-1.87-.029-3.673-6.008 1.305-7.276-2.896-7.276-2.896-.982-2.494-2.398-3.158-2.398-3.158-1.962-1.341.148-1.315.148-1.315 2.168.154 3.309 2.227 3.309 2.227 1.926 3.3 5.056 2.347 6.286 1.795.196-1.396.753-2.348 1.371-2.888-4.796-.545-9.839-2.399-9.839-10.675 0-2.358.842-4.286 2.224-5.796-.223-.547-.964-2.743.21-5.717 0 0 1.815-.58 5.941 2.215A20.688 20.688 0 0 1 21.256.73c1.834.008 3.682.248 5.407.727 4.124-2.796 5.934-2.215 5.934-2.215 1.179 2.974.438 5.17.215 5.717 1.384 1.51 2.221 3.438 2.221 5.796 0 8.298-5.05 10.124-9.863 10.658.776.667 1.467 1.985 1.467 4 0 2.887-.027 5.217-.027 5.925 0 .578.389 1.25 1.485 1.04 8.577-2.863 14.76-10.953 14.76-20.494 0-11.93-9.672-21.6-21.602-21.6"/></svg>