<svg xmlns="http://www.w3.org/2000/svg" width="21" height="21" fill="#032c36" viewBox="0 0 21 21"><path d="M10.5 21C4.701 21 0 16.299 0 10.5S4.701 0 10.5 0 21 4.701 21 10.5 16.299 21 10.5 21zm3.875-6.625h-1.632v-2.554c0-.609-.01-1.393-.848-1.393-.85 0-.98.664-.98 1.35v2.597h-1.63V9.123h1.565v.718h.023c.217-.413.75-.848 1.544-.848 1.653 0 1.958 1.087 1.958 2.502v2.88zm-6.93-5.97a.946.946 0 1 1-.002-1.892.946.946 0 0 1 .002 1.892zm-.818 5.97V9.123h1.635v5.252H6.627zm8.561-9.378h-9.38a.803.803 0 0 0-.811.794v9.418c0 .438.363.794.811.794h9.38a.805.805 0 0 0 .815-.794V5.79a.805.805 0 0 0-.815-.794z"></path></svg>