<svg xmlns="http://www.w3.org/2000/svg" viewBox="0 0 331.7 161"><path d="M38 55.4c-9.4 0-16.1 7-16.1 15.3s6.7 15.2 16 15.2c9.4 0 16.1-7 16.1-15.3s-6.7-15.2-16-15.2m0 21.8c-3.6 0-6.2-3.1-6.2-6.6 0-3.5 2.4-6.5 6.1-6.5 3.6 0 6.2 3.1 6.2 6.6 0 3.5-2.4 6.5-6.1 6.5m129.8-21.8c-9.4 0-16.1 7-16.1 15.3s6.7 15.2 16 15.2c9.4 0 16.1-7 16.1-15.3s-6.7-15.2-16-15.2m0 21.8c-3.6 0-6.2-3.1-6.2-6.6 0-3.5 2.4-6.5 6.1-6.5 3.6 0 6.2 3.1 6.2 6.6-.1 3.5-2.4 6.5-6.1 6.5M56.2 56.1h10.2v4.1c1.9-2.4 4.6-4.7 8.7-4.7 6.2 0 9.9 4.1 9.9 10.7v19.1H74.8V69.4c0-3.2-1.7-4.9-4.1-4.9-2.5 0-4.3 1.7-4.3 4.9v15.8H56.2V56.1zm60.2 15.3c0-8.6-4.6-15.9-14.7-15.9C93 55.4 87 62.2 87 70.7c0 9 6.5 15.2 15.6 15.2 5.8 0 9.9-2.4 12.7-5.9l-5.7-4.7c-2.1 2-4 3-6.5 3-3.2 0-5.5-1.6-6.3-4.8h19.5c.1-.7.1-1.5.1-2.1m-19.8-3.2c.5-3.2 2.4-5.3 5.1-5.3 2.8 0 4.7 2 5.1 5.3H96.6zm41-12.8c-4.4 0-6.8 2.1-8.8 4.5V56h-10.2v37.7h10.2V81.6c1.9 2.2 4.5 4.2 8.9 4.2 6.9 0 12.9-5.8 12.9-15.3-.1-9.3-6-15.1-13-15.1m-3.1 21.9c-3.3 0-5.9-2.8-5.9-6.7 0-3.8 2.6-6.6 5.9-6.6 3.3 0 6 2.8 6 6.6 0 3.9-2.7 6.7-6 6.7m51.7-21.2h10.2v29.1h-10.2zm13.7 0h10.2v4.1c1.9-2.4 4.6-4.7 8.7-4.7 6.2 0 9.9 4.1 9.9 10.7v19.1h-10.2V69.4c0-3.2-1.7-4.9-4.1-4.9-2.5 0-4.3 1.7-4.3 4.9v15.8h-10.2V56.1zm34 29.1V64.3h-3.4v-8.2h3.4v-7.4h10.3v7.4h6.8v8.2h-6.8v20.9z"/><path fill="#009ddf" d="M261.1 79.7c0 3.5-2.8 6.2-6.2 6.2-3.5 0-6.2-2.8-6.2-6.2 0-3.5 2.8-6.2 6.2-6.2 3.4-.1 6.2 2.7 6.2 6.2"/><path d="M127.5 106.8c.8.5 1.4 1.1 1.8 2s.7 1.9.7 3.1c0 1.2-.2 2.2-.7 3.1s-1 1.5-1.8 2-1.7.7-2.6.7c-1 0-1.9-.3-2.6-.8-.7-.5-1.2-1.2-1.5-2v2.6h-2.3v-15.2h2.3v6.5c.3-.8.8-1.5 1.5-2s1.6-.8 2.6-.8c1 .1 1.9.3 2.6.8zm-5.1 1.8c-.5.3-.9.7-1.2 1.3-.3.6-.5 1.2-.5 2s.2 1.4.5 2c.3.6.7 1 1.2 1.3.5.3 1.1.5 1.8.5 1 0 1.9-.3 2.5-1s.9-1.6.9-2.7c0-1.2-.3-2.1-.9-2.7-.6-.7-1.5-1-2.5-1-.7-.1-1.3 0-1.8.3zm19.8 3.8h-8.7c0 1.2.4 2 1 2.6.6.6 1.3.8 2.2.8.8 0 1.4-.2 2-.6.5-.4.9-.9 1-1.6h2.5c-.2.8-.5 1.5-.9 2.1-.5.6-1.1 1.1-1.9 1.4s-1.6.5-2.6.5c-1.1 0-2.1-.2-2.9-.7-.8-.5-1.5-1.1-2-2-.5-.9-.7-1.9-.7-3.1 0-1.2.2-2.2.7-3.1.5-.9 1.1-1.5 2-2 .8-.5 1.8-.7 2.9-.7 1.1 0 2.1.2 2.9.7.8.5 1.5 1.1 1.9 1.9.4.8.7 1.7.7 2.7 0 .5-.1.8-.1 1.1zm-2.7-3c-.3-.5-.7-.9-1.1-1.1-.5-.2-1-.4-1.6-.4-.9 0-1.7.3-2.3.8-.6.6-1 1.4-1 2.5h6.4c0-.6-.1-1.3-.4-1.8zm5.4-3.1 3.4 8.3 3.1-8.3h2.6l-6.8 16.7h-2.6l2.4-5.6-4.8-11h2.7zm17.6.5c.9.5 1.6 1.1 2.1 2 .5.9.7 1.9.7 3.1 0 1.2-.2 2.2-.7 3.1-.5.9-1.2 1.5-2.1 2-.9.5-1.9.7-3 .7s-2.1-.2-2.9-.7c-.9-.5-1.6-1.1-2.1-2-.5-.9-.7-1.9-.7-3.1 0-1.2.2-2.2.7-3.1.5-.9 1.2-1.5 2.1-2 .9-.5 1.9-.7 2.9-.7 1.2 0 2.2.2 3 .7zm-4.6 1.8c-.5.3-.9.7-1.2 1.3-.3.6-.5 1.3-.5 2.1s.2 1.5.5 2.1c.3.6.7 1 1.2 1.3.5.3 1.1.4 1.7.4.6 0 1.2-.1 1.7-.4.5-.3.9-.7 1.2-1.3.3-.6.5-1.3.5-2.1s-.2-1.5-.5-2.1c-.3-.6-.7-1-1.2-1.3-.5-.3-1.1-.4-1.7-.4-.6-.1-1.2.1-1.7.4zm18.6-1.3c.8.8 1.2 2.1 1.2 3.6v6.6h-2.3v-6.3c0-1-.3-1.8-.8-2.4-.5-.6-1.2-.8-2.1-.8-.9 0-1.7.3-2.2.9-.6.6-.8 1.5-.8 2.6v6h-2.3v-11.3h2.3v2.5c.3-.8.8-1.5 1.5-2s1.5-.7 2.5-.7c1.2.1 2.3.5 3 1.3zm10.6-.4c.7.5 1.2 1.2 1.5 2v-6.5h2.4v15.2h-2.4V115c-.3.8-.8 1.5-1.5 2s-1.6.8-2.6.8-1.9-.2-2.6-.7c-.8-.5-1.4-1.1-1.8-2-.4-.9-.7-1.9-.7-3.1 0-1.2.2-2.2.7-3.1.4-.9 1-1.5 1.8-2s1.7-.7 2.6-.7c1-.1 1.9.2 2.6.7zm-4.4 2.3c-.6.7-.9 1.6-.9 2.7 0 1.2.3 2.1.9 2.7s1.5 1 2.5 1c.7 0 1.2-.2 1.8-.5.5-.3.9-.7 1.2-1.3s.5-1.2.5-2c0-.7-.2-1.4-.5-2s-.7-1-1.2-1.3c-.5-.3-1.1-.5-1.8-.5-1 .2-1.9.5-2.5 1.2zm20.6 6.3v2h-1.4c-1.2 0-2.1-.3-2.7-.9-.6-.6-.9-1.5-.9-2.9v-5.5h-1.6v-2h1.6v-2.8h2.4v2.8h2.7v2h-2.7v5.6c0 .6.1 1.1.4 1.3.2.2.7.4 1.3.4h.9zm11.2-8.2c.8.8 1.2 2.1 1.2 3.6v6.6h-2.3v-6.3c0-1-.3-1.8-.8-2.4-.5-.6-1.2-.8-2.1-.8-.9 0-1.7.3-2.2.9-.6.6-.8 1.5-.8 2.6v6H205v-15.2h2.3v6.4c.3-.8.8-1.5 1.5-2s1.5-.7 2.5-.7c1.3.1 2.4.5 3.2 1.3zm13.8 5.1h-8.7c0 1.2.4 2 1 2.6.6.6 1.3.8 2.2.8.8 0 1.4-.2 2-.6.5-.4.9-.9 1-1.6h2.5c-.2.8-.5 1.5-.9 2.1-.5.6-1.1 1.1-1.9 1.4s-1.6.5-2.6.5c-1.1 0-2.1-.2-2.9-.7-.8-.5-1.5-1.1-2-2-.5-.9-.7-1.9-.7-3.1 0-1.2.2-2.2.7-3.1.5-.9 1.1-1.5 2-2 .8-.5 1.8-.7 2.9-.7 1.1 0 2.1.2 2.9.7.8.5 1.5 1.1 1.9 1.9.4.8.7 1.7.7 2.7 0 .5 0 .8-.1 1.1zm-2.6-3c-.3-.5-.7-.9-1.1-1.1-.5-.2-1-.4-1.6-.4-.9 0-1.7.3-2.3.8-.6.6-1 1.4-1 2.5h6.4c0-.6-.2-1.3-.4-1.8zm16.9-2.6c.9.5 1.6 1.1 2.1 2 .5.9.7 1.9.7 3.1 0 1.2-.2 2.2-.7 3.1-.5.9-1.2 1.5-2.1 2-.9.5-1.9.7-3 .7s-2.1-.2-2.9-.7c-.9-.5-1.6-1.1-2.1-2-.5-.9-.7-1.9-.7-3.1 0-1.2.2-2.2.7-3.1.5-.9 1.2-1.5 2.1-2 .9-.5 1.9-.7 2.9-.7 1.2 0 2.1.2 3 .7zm-4.6 1.8c-.5.3-.9.7-1.2 1.3-.3.6-.5 1.3-.5 2.1s.2 1.5.5 2.1c.3.6.7 1 1.2 1.3.5.3 1.1.4 1.7.4.6 0 1.2-.1 1.7-.4.5-.3.9-.7 1.2-1.3.3-.6.5-1.3.5-2.1s-.2-1.5-.5-2.1c-.3-.6-.7-1-1.2-1.3-.5-.3-1.1-.4-1.7-.4-.6-.1-1.2.1-1.7.4zm18.3-1.8c.8.5 1.4 1.1 1.8 2s.7 1.9.7 3.1c0 1.2-.2 2.2-.7 3.1s-1 1.5-1.8 2-1.7.7-2.6.7c-1 0-1.9-.3-2.6-.8-.7-.5-1.2-1.2-1.5-2v2.6h-2.3v-15.2h2.3v6.5c.3-.8.8-1.5 1.5-2s1.6-.8 2.6-.8c.9.1 1.8.3 2.6.8zm-5.1 1.8c-.5.3-.9.7-1.2 1.3-.3.6-.5 1.2-.5 2s.2 1.4.5 2c.3.6.7 1 1.2 1.3.5.3 1.1.5 1.8.5 1 0 1.9-.3 2.5-1s.9-1.6.9-2.7c0-1.2-.3-2.1-.9-2.7-.6-.7-1.5-1-2.5-1-.7-.1-1.3 0-1.8.3zm13.5 6.5 3.2-8.9h2.5l-4.3 11.3h-2.8l-4.3-11.3h2.5l3.2 8.9zm7-13.1c.3-.3.6-.4 1.1-.4.5 0 .8.1 1.1.4.3.3.4.6.4 1s-.1.7-.4 1c-.3.2-.6.4-1.1.4-.5 0-.8-.1-1.1-.4-.3-.2-.4-.6-.4-1s.1-.8.4-1zm2.2 4.3v11.3h-2.3v-11.3h2.3zm10.5.5c.9.5 1.6 1.1 2.1 2 .5.9.7 1.9.7 3.1 0 1.2-.2 2.2-.7 3.1-.5.9-1.2 1.5-2.1 2-.9.5-1.9.7-3 .7s-2.1-.2-2.9-.7c-.9-.5-1.6-1.1-2.1-2-.5-.9-.7-1.9-.7-3.1 0-1.2.2-2.2.7-3.1.5-.9 1.2-1.5 2.1-2 .9-.5 1.9-.7 2.9-.7 1.1 0 2.1.2 3 .7zm-4.6 1.8c-.5.3-.9.7-1.2 1.3-.3.6-.5 1.3-.5 2.1s.2 1.5.5 2.1c.3.6.7 1 1.2 1.3.5.3 1.1.4 1.7.4.6 0 1.2-.1 1.7-.4.5-.3.9-.7 1.2-1.3.3-.6.5-1.3.5-2.1s-.2-1.5-.5-2.1c-.3-.6-.7-1-1.2-1.3-.5-.3-1.1-.4-1.7-.4-.7-.1-1.2.1-1.7.4zm19.6-2.3v11.3H297v-2.5c-.3.8-.8 1.5-1.5 1.9s-1.5.7-2.5.7c-1.3 0-2.4-.4-3.2-1.3-.8-.8-1.2-2.1-1.2-3.6v-6.6h2.3v6.3c0 1 .3 1.8.8 2.4.5.6 1.2.8 2.1.8.9 0 1.7-.3 2.2-.9.6-.6.8-1.5.8-2.6v-6h2.6zm9.2.8c.8.7 1.3 1.6 1.5 2.7h-2.2c-.1-.6-.4-1.1-.8-1.5-.4-.4-1-.6-1.7-.6-.6 0-1 .1-1.4.4-.3.3-.5.7-.5 1.1 0 .4.1.6.3.9s.5.4.9.5c.3.1.8.3 1.5.4.8.2 1.5.4 2.1.6.5.2 1 .5 1.4 1 .4.4.6 1.1.6 1.8 0 .9-.4 1.7-1.1 2.3-.7.6-1.7.9-2.9.9-1.4 0-2.5-.3-3.4-1s-1.4-1.6-1.6-2.8h2.3c.1.6.3 1.1.8 1.5.5.4 1.1.6 1.9.6.6 0 1-.1 1.3-.4.3-.3.5-.7.5-1.1 0-.4-.1-.7-.4-.9-.2-.2-.6-.4-.9-.5-.4-.1-.9-.3-1.5-.4-.8-.2-1.5-.4-2-.6-.5-.2-1-.5-1.3-.9-.4-.4-.5-1-.5-1.8 0-1 .4-1.7 1.1-2.3.7-.6 1.7-.9 3-.9 1.1 0 2.2.4 3 1z"/></svg>