<svg xmlns="http://www.w3.org/2000/svg" width="32" height="32" viewBox="5 -10 32 43.199" fill="#032c36"><path d="M16 0C7.218 0 .071 7.16 0 15.906c-.036 4.267 1.603 8.322 4.625 11.344 2.987 3.058 7.015 4.714 11.281 4.75H16c8.782 0 15.929-7.16 16-15.906C32.071 7.276 24.924.07 16 0zm3.875 7.844c1.186 0 2.248.48 3 1.281a8.29 8.29 0 0 0 2.625-1 4.135 4.135 0 0 1-1.813 2.281c.834-.1 1.636-.297 2.375-.625A8.36 8.36 0 0 1 24 11.906c.007.177 0 .353 0 .531 0 5.45-4.135 11.72-11.719 11.72-2.328 0-4.519-.675-6.344-1.845.323.039.668.063 1 .063a8.298 8.298 0 0 0 5.125-1.781A4.1 4.1 0 0 1 8.22 17.75c.252.048.484.063.75.063.376 0 .748-.062 1.094-.157a4.117 4.117 0 0 1-3.313-4.031v-.063c.556.31 1.2.51 1.875.532a4.14 4.14 0 0 1-1.844-3.438c0-.755.208-1.453.563-2.062a11.713 11.713 0 0 0 8.5 4.312 4.123 4.123 0 0 1-.094-.937 4.126 4.126 0 0 1 4.125-4.125z" transform="matrix(1.35 0 0 1.35 -.6 -10)" /></svg>
