<svg xmlns="http://www.w3.org/2000/svg" width="32" height="32" viewBox="5 -10 32 43.199" fill="#032c36"><path d="M21-10C9.144-10-.504-.334-.6 11.473c-.049 5.76 2.164 11.235 6.244 15.315 4.032 4.128 9.47 6.363 15.23 6.412H21c11.856 0 21.504-9.666 21.6-21.473C42.696-.177 33.047-9.906 21-10zM26.231.59c1.601 0 3.035.647 4.05 1.729a11.191 11.191 0 0 0 3.544-1.35 5.582 5.582 0 0 1-2.448 3.08c1.126-.136 2.21-.402 3.207-.845a11.286 11.286 0 0 1-2.784 2.87c.01.238 0 .476 0 .716 0 7.357-5.582 15.822-15.82 15.822-3.143 0-6.101-.911-8.565-2.49.436.052.902.084 1.35.084a11.202 11.202 0 0 0 6.919-2.404 5.535 5.535 0 0 1-5.187-3.84c.34.065.653.086 1.013.086.507 0 1.01-.084 1.476-.212a5.558 5.558 0 0 1-4.472-5.442v-.085a5.6 5.6 0 0 0 2.531.718 5.589 5.589 0 0 1-2.49-4.641c0-1.02.282-1.962.76-2.784a15.813 15.813 0 0 0 11.476 5.821 5.566 5.566 0 0 1-.127-1.265A5.57 5.57 0 0 1 26.233.59z"/></svg>